<svg width="18" height="18" viewBox="0 0 18 18" fill="none" xmlns="http://www.w3.org/2000/svg">
<g clip-path="url(#clip0_10_334)">
<path d="M9.00006 0.588867C4.37487 0.588867 0.611603 4.36229 0.611603 9C0.611603 13.6376 4.37487 17.4111 9.00006 17.4111C13.6252 17.4111 17.3884 13.6376 17.3884 9C17.3884 4.36229 13.6252 0.588867 9.00006 0.588867ZM16.3365 9.06296C14.5605 8.59314 12.7391 8.53843 11.0038 8.89699C10.7668 8.30391 10.511 7.72035 10.2361 7.14435C11.8057 6.40821 13.257 5.41055 14.5299 4.17727C15.653 5.46947 16.3398 7.1538 16.3398 9C16.3398 9.02109 16.3365 9.04085 16.3365 9.06296ZM13.7887 3.43505C12.5997 4.58631 11.247 5.52407 9.78113 6.20968C8.99781 4.70605 8.08146 3.26992 7.04442 1.91359C7.66831 1.74009 8.32172 1.64039 9.00006 1.64039C10.8298 1.64046 12.5021 2.31936 13.7887 3.43505ZM6.00847 2.28589C7.07272 3.6443 8.00711 5.09105 8.80294 6.60589C6.60093 7.44908 4.21027 7.77308 1.81644 7.49232C2.30174 5.16245 3.89154 3.23842 6.00847 2.28589ZM1.66021 9C1.66021 8.84229 1.67388 8.68767 1.68426 8.53312C2.30504 8.60681 2.9258 8.65512 3.5443 8.65512C5.51773 8.65512 7.45656 8.26815 9.27361 7.55856C9.52519 8.08428 9.76214 8.61722 9.98134 9.15767C7.40407 9.93361 5.10784 11.5885 3.56227 13.9257C2.38464 12.6199 1.66021 10.8945 1.66021 9ZM4.32871 14.6721C5.75053 12.4307 7.91893 10.8503 10.3589 10.1354C11.0215 11.9648 11.4986 13.8645 11.7766 15.8087C10.9199 16.162 9.9825 16.3596 9.00002 16.3596C7.22692 16.3596 5.59845 15.7257 4.32871 14.6721ZM12.76 15.3082C12.4717 13.4557 12.0144 11.6422 11.3885 9.89153C12.9729 9.59298 14.6307 9.66333 16.2454 10.1208C15.9068 12.3245 14.595 14.2043 12.76 15.3082Z" fill="#40434A"/>
</g>
<defs>
<clipPath id="clip0_10_334">
<rect width="18" height="18" fill="white"/>
</clipPath>
</defs>
</svg>
