<svg width="18" height="18" viewBox="0 0 18 18" fill="none" xmlns="http://www.w3.org/2000/svg">
<path d="M9 18C13.9706 18 18 13.9706 18 9C18 4.02944 13.9706 0 9 0C4.02944 0 0 4.02944 0 9C0 13.9706 4.02944 18 9 18Z" fill="#40434A"/>
<path d="M4.707 7.73999C4.93068 7.73999 5.112 7.55867 5.112 7.33499C5.112 7.11132 4.93068 6.92999 4.707 6.92999C4.48333 6.92999 4.302 7.11132 4.302 7.33499C4.302 7.55867 4.48333 7.73999 4.707 7.73999Z" fill="#FBFBFB"/>
<path d="M5.13 8.00549H3.276V7.88399C3.276 7.64549 3.5145 7.64099 3.636 7.64099C3.7755 7.64099 3.8385 7.65449 3.8385 7.65449V6.99749C3.8385 6.99749 3.7125 6.97949 3.5415 6.97949C3.1545 6.97949 2.439 7.08749 2.439 7.90649V8.00999H2.1015V8.61749H2.439V9.89999H2.124V10.5075H3.645V9.89999H3.276V8.61749H4.2885V9.89999H3.9735V10.5075H5.445V9.89999H5.13V8.00549ZM8.28 8.00549H6.9525V8.61299H7.1775L6.8895 9.51299C6.8355 9.66149 6.822 9.84149 6.822 9.84149H6.804C6.804 9.84149 6.7905 9.66149 6.7365 9.51299L6.4485 8.61299H6.6735V8.00549H5.346V8.61299H5.625L6.318 10.503H7.308L8.001 8.61299H8.28V8.00549ZM10.737 9.15299C10.737 8.45999 10.3185 7.94699 9.576 7.94699C8.7705 7.94699 8.2755 8.51849 8.2755 9.25199C8.2755 9.91799 8.757 10.5615 9.648 10.5615C10.323 10.5615 10.7235 10.2105 10.7235 10.2105L10.4175 9.62999C10.4175 9.62999 10.0845 9.86849 9.7155 9.86849C9.45 9.86849 9.198 9.72899 9.135 9.40949H10.719C10.7145 9.40499 10.737 9.23399 10.737 9.15299ZM9.153 8.94599C9.198 8.75249 9.315 8.57699 9.5535 8.57699C9.738 8.57699 9.8685 8.74799 9.8685 8.94599H9.153ZM14.2875 8.58149H14.2785C14.2785 8.58149 14.2875 8.53199 14.2875 8.45549V8.32499C14.2875 8.09549 14.1615 8.00549 13.932 8.00549H13.1445V8.61299H13.3785C13.446 8.61299 13.4865 8.65349 13.4865 8.72099V9.89999H13.149V10.5075H14.6655V9.89999H14.328V9.53549C14.328 9.08099 14.553 8.78399 15.0165 8.78399C15.12 8.78399 15.1875 8.79749 15.1875 8.79749V7.97399C15.1875 7.97399 15.138 7.96499 15.0885 7.96499C14.7105 7.96049 14.3955 8.23949 14.2875 8.58149ZM12.069 8.58149H12.06C12.06 8.58149 12.069 8.53199 12.069 8.45549V8.32499C12.069 8.09549 11.943 8.00549 11.7135 8.00549H10.926V8.61299H11.16C11.2275 8.61299 11.268 8.65349 11.268 8.72099V9.89999H10.9305V10.5075H12.447V9.89999H12.1095V9.53549C12.1095 9.08099 12.3345 8.78399 12.798 8.78399C12.9015 8.78399 12.969 8.79749 12.969 8.79749V7.97399C12.969 7.97399 12.9195 7.96499 12.87 7.96499C12.4875 7.96049 12.1725 8.23949 12.069 8.58149Z" fill="#FBFBFB"/>
</svg>
