<svg width="18" height="18" viewBox="0 0 18 18" fill="none" xmlns="http://www.w3.org/2000/svg">
<g clip-path="url(#clip0_10_316)">
<path d="M8.99887 0.187317C4.02975 0.187317 0 4.31882 0 9.41542C0 13.4918 2.5785 16.95 6.156 18.1713C6.606 18.2563 6.77025 17.9714 6.77025 17.7267C6.77025 17.5072 6.76237 16.927 6.75787 16.1573C4.25475 16.7145 3.726 14.9199 3.726 14.9199C3.31763 13.8537 2.727 13.5699 2.727 13.5699C1.90913 12.9977 2.78775 13.0092 2.78775 13.0092C3.69112 13.0747 4.16587 13.9605 4.16587 13.9605C4.96913 15.3703 6.273 14.9635 6.786 14.7269C6.867 14.1306 7.09987 13.7239 7.3575 13.4929C5.3595 13.2597 3.258 12.4681 3.258 8.93287C3.258 7.92527 3.609 7.1015 4.185 6.45581C4.09163 6.22258 3.78338 5.28391 4.27275 4.01436C4.27275 4.01436 5.02875 3.76619 6.74775 4.95992C7.4655 4.75541 8.235 4.65316 9.00113 4.64971C9.765 4.65431 10.5356 4.75541 11.2545 4.96107C12.9724 3.76734 13.7272 4.01551 13.7272 4.01551C14.2177 5.28621 13.9095 6.22373 13.8172 6.45696C14.3944 7.10265 14.742 7.92642 14.742 8.93402C14.742 12.4784 12.6382 13.2585 10.6335 13.4872C10.9564 13.7721 11.2444 14.3351 11.2444 15.1956C11.2444 16.4296 11.2331 17.4245 11.2331 17.7267C11.2331 17.9737 11.3951 18.2609 11.8519 18.1702C15.4237 16.9477 18 13.4906 18 9.41542C18 4.31882 13.9703 0.187317 8.99887 0.187317Z" fill="#40434A"/>
</g>
<defs>
<clipPath id="clip0_10_316">
<rect width="18" height="18" fill="white"/>
</clipPath>
</defs>
</svg>
