<svg width="16" height="17" viewBox="0 0 16 17" fill="none" xmlns="http://www.w3.org/2000/svg">
<path d="M12 7.71334C11.8232 7.71334 11.6537 7.78358 11.5286 7.90861C11.4036 8.03363 11.3334 8.2032 11.3334 8.38001V13.1667C11.3334 13.3435 11.2631 13.5131 11.1381 13.6381C11.0131 13.7631 10.8435 13.8333 10.6667 13.8333H3.33337C3.15656 13.8333 2.98699 13.7631 2.86197 13.6381C2.73695 13.5131 2.66671 13.3435 2.66671 13.1667V5.83334C2.66671 5.65653 2.73695 5.48696 2.86197 5.36194C2.98699 5.23691 3.15656 5.16668 3.33337 5.16668H8.12004C8.29685 5.16668 8.46642 5.09644 8.59145 4.97141C8.71647 4.84639 8.78671 4.67682 8.78671 4.50001C8.78671 4.3232 8.71647 4.15363 8.59145 4.02861C8.46642 3.90358 8.29685 3.83334 8.12004 3.83334H3.33337C2.80294 3.83334 2.29423 4.04406 1.91916 4.41913C1.54409 4.7942 1.33337 5.30291 1.33337 5.83334V13.1667C1.33337 13.6971 1.54409 14.2058 1.91916 14.5809C2.29423 14.956 2.80294 15.1667 3.33337 15.1667H10.6667C11.1971 15.1667 11.7058 14.956 12.0809 14.5809C12.456 14.2058 12.6667 13.6971 12.6667 13.1667V8.38001C12.6667 8.2032 12.5965 8.03363 12.4714 7.90861C12.3464 7.78358 12.1769 7.71334 12 7.71334ZM14.6134 2.24668C14.5457 2.08378 14.4163 1.95433 14.2534 1.88668C14.1732 1.85252 14.0872 1.8344 14 1.83334H10C9.82323 1.83334 9.65366 1.90358 9.52864 2.02861C9.40361 2.15363 9.33337 2.3232 9.33337 2.50001C9.33337 2.67682 9.40361 2.84639 9.52864 2.97141C9.65366 3.09644 9.82323 3.16668 10 3.16668H12.3934L5.52671 10.0267C5.46422 10.0887 5.41463 10.1624 5.38078 10.2436C5.34693 10.3249 5.32951 10.412 5.32951 10.5C5.32951 10.588 5.34693 10.6752 5.38078 10.7564C5.41463 10.8376 5.46422 10.9114 5.52671 10.9733C5.58868 11.0358 5.66242 11.0854 5.74366 11.1193C5.8249 11.1531 5.91203 11.1705 6.00004 11.1705C6.08805 11.1705 6.17519 11.1531 6.25643 11.1193C6.33767 11.0854 6.4114 11.0358 6.47337 10.9733L13.3334 4.10668V6.50001C13.3334 6.67682 13.4036 6.84639 13.5286 6.97141C13.6537 7.09644 13.8232 7.16668 14 7.16668C14.1769 7.16668 14.3464 7.09644 14.4714 6.97141C14.5965 6.84639 14.6667 6.67682 14.6667 6.50001V2.50001C14.6657 2.41289 14.6475 2.32682 14.6134 2.24668Z" fill="white"/>
</svg>
