<svg width="18" height="18" viewBox="0 0 18 18" fill="none" xmlns="http://www.w3.org/2000/svg">
<g clip-path="url(#clip0_10_342)">
<path d="M7.24364 7.13168C7.24364 6.28259 6.66598 6.28259 6.66598 6.28259H6.36012H4.28943V8.10451H6.51867C6.90389 8.10432 7.24364 7.98113 7.24364 7.13168Z" fill="#40434A"/>
<path d="M6.66617 9.36292H4.28943V11.545H6.55642C6.89745 11.5353 7.52685 11.4285 7.52685 10.4844C7.52685 9.3515 6.66617 9.36292 6.66617 9.36292Z" fill="#40434A"/>
<path d="M12.7506 8.10431C11.4894 8.10431 11.3136 9.36293 11.3136 9.36293H13.9956C13.9958 9.36293 14.0118 8.10431 12.7506 8.10431Z" fill="#40434A"/>
<path d="M9 0C4.02942 0 0 4.02961 0 9C0 13.9704 4.02942 18 9 18C13.9706 18 18 13.9704 18 9C18 4.02961 13.9706 0 9 0ZM10.9622 5.31216H14.3309V6.31758H10.9622V5.31216ZM9.25964 10.5857C9.25964 13.0777 6.66617 12.9957 6.66617 12.9957H4.28943H4.21964H2.41743V4.83118H4.21964H4.28943H6.66598C7.9572 4.83118 8.97643 5.544 8.97643 7.00499C8.97643 8.46617 7.73052 8.55879 7.73052 8.55879C9.37289 8.55879 9.25964 10.5857 9.25964 10.5857ZM12.7666 11.8734C14.1238 11.8734 14.0757 10.995 14.0757 10.995H15.5126C15.5126 13.3261 12.7188 13.1664 12.7188 13.1664C9.36608 13.1664 9.58171 10.0452 9.58171 10.0452C9.58171 10.0452 9.57913 6.9085 12.7184 6.9085C16.0232 6.9085 15.5605 10.4523 15.5605 10.4523H11.3298C11.3298 11.9695 12.7666 11.8734 12.7666 11.8734Z" fill="#40434A"/>
</g>
<defs>
<clipPath id="clip0_10_342">
<rect width="18" height="18" fill="white"/>
</clipPath>
</defs>
</svg>
