<svg width="18" height="18" viewBox="0 0 18 18" fill="none" xmlns="http://www.w3.org/2000/svg">
<path fill-rule="evenodd" clip-rule="evenodd" d="M10.9635 12.3244C8.31325 14.4471 4.43381 14.28 1.97703 11.8232C-0.65901 9.18719 -0.65901 4.91333 1.97703 2.27729C4.61307 -0.358747 8.88693 -0.358747 11.523 2.27729C13.9798 4.73407 14.1468 8.6135 12.0242 11.2638L17.1798 16.4194C17.4727 16.7123 17.4727 17.1872 17.1798 17.4801C16.8869 17.773 16.412 17.773 16.1191 17.4801L10.9635 12.3244ZM3.03769 10.7626C0.987437 8.71232 0.987437 5.3882 3.03769 3.33795C5.08794 1.2877 8.41206 1.2877 10.4623 3.33795C12.5111 5.3867 12.5126 8.70744 10.4668 10.7581C10.4653 10.7595 10.4638 10.761 10.4623 10.7625C10.4608 10.7641 10.4593 10.7656 10.4578 10.7671C8.40719 12.8128 5.08644 12.8113 3.03769 10.7626Z" fill="#B2B1B4"/>
</svg>
